/* XPM */
static const char *imgExit[] = {
/* columns rows colors chars-per-pixel */
"24 24 2 1 ",
"  c #0C0C10",
". c white",
/* pixels */
"                        ",
"                        ",
"   ...            ...   ",
"  .....          .....  ",
"  ......        ......  ",
"  .......      .......  ",
"   .......    .......   ",
"    .......  .......    ",
"     ..............     ",
"      ............      ",
"       ..........       ",
"        ........        ",
"        ........        ",
"       ..........       ",
"      ............      ",
"     ..............     ",
"    .......  .......    ",
"   .......    .......   ",
"  .......      .......  ",
"  ......        ......  ",
"  .....          .....  ",
"   ...            ...   ",
"                        ",
"                        "
};
