/* XPM */
static const char *imgMinimize[] = {
/* columns rows colors chars-per-pixel */
"24 23 2 1 ",
"  c #0C0C10",
". c white",
/* pixels */
"                        ",
"                        ",
"                        ",
"                        ",
"                        ",
"                        ",
"                        ",
"                        ",
"                        ",
"  ....................  ",
" ...................... ",
" ...................... ",
" ...................... ",
"  ....................  ",
"                        ",
"                        ",
"                        ",
"                        ",
"                        ",
"                        ",
"                        ",
"                        ",
"                        "
};
